<?xml version="1.0" encoding="UTF-8"?>
<svg xmlns="http://www.w3.org/2000/svg" xmlns:xlink="http://www.w3.org/1999/xlink" width="24px" height="24px" viewBox="0 0 24 24" version="1.1">
<g id="surface1">
<path style=" stroke:none;fill-rule:nonzero;fill:rgb(0%,0%,0%);fill-opacity:1;" d="M 6.382812 0.738281 C 6.46875 0.734375 6.554688 0.734375 6.640625 0.734375 C 6.875 0.734375 7.105469 0.734375 7.339844 0.734375 C 7.484375 0.734375 7.628906 0.734375 7.773438 0.734375 C 8.28125 0.734375 8.789062 0.734375 9.296875 0.734375 C 9.769531 0.734375 10.242188 0.730469 10.714844 0.730469 C 11.121094 0.730469 11.523438 0.726562 11.929688 0.730469 C 12.171875 0.730469 12.414062 0.726562 12.65625 0.726562 C 12.886719 0.726562 13.113281 0.726562 13.339844 0.726562 C 13.425781 0.726562 13.507812 0.726562 13.589844 0.726562 C 13.707031 0.726562 13.820312 0.726562 13.933594 0.726562 C 13.964844 0.726562 14 0.726562 14.035156 0.726562 C 14.390625 0.730469 14.589844 0.9375 14.832031 1.179688 C 14.855469 1.203125 14.878906 1.226562 14.90625 1.25 C 14.984375 1.332031 15.0625 1.410156 15.140625 1.488281 C 15.199219 1.546875 15.257812 1.601562 15.3125 1.660156 C 15.46875 1.816406 15.621094 1.96875 15.777344 2.125 C 15.9375 2.285156 16.101562 2.449219 16.261719 2.609375 C 16.535156 2.882812 16.804688 3.152344 17.078125 3.425781 C 17.390625 3.738281 17.707031 4.054688 18.019531 4.367188 C 18.289062 4.636719 18.558594 4.90625 18.828125 5.175781 C 18.992188 5.335938 19.152344 5.5 19.3125 5.660156 C 19.464844 5.8125 19.617188 5.960938 19.765625 6.113281 C 19.820312 6.167969 19.878906 6.226562 19.933594 6.28125 C 20.007812 6.355469 20.085938 6.433594 20.160156 6.507812 C 20.203125 6.550781 20.246094 6.59375 20.289062 6.636719 C 20.449219 6.8125 20.496094 6.9375 20.496094 7.175781 C 20.496094 7.226562 20.496094 7.273438 20.496094 7.324219 C 20.496094 7.375 20.496094 7.429688 20.496094 7.484375 C 20.496094 7.539062 20.496094 7.597656 20.496094 7.65625 C 20.496094 7.8125 20.496094 7.96875 20.496094 8.125 C 20.496094 8.296875 20.496094 8.464844 20.496094 8.632812 C 20.5 8.964844 20.5 9.296875 20.5 9.628906 C 20.5 9.902344 20.5 10.171875 20.5 10.441406 C 20.5 10.480469 20.5 10.515625 20.5 10.558594 C 20.5 10.636719 20.5 10.714844 20.5 10.792969 C 20.5 11.523438 20.5 12.257812 20.5 12.988281 C 20.5 13.660156 20.5 14.328125 20.5 14.996094 C 20.5 15.683594 20.5 16.371094 20.5 17.058594 C 20.5 17.445312 20.5 17.832031 20.503906 18.21875 C 20.503906 18.546875 20.503906 18.875 20.503906 19.203125 C 20.5 19.371094 20.5 19.539062 20.503906 19.707031 C 20.503906 19.890625 20.503906 20.070312 20.5 20.253906 C 20.503906 20.304688 20.503906 20.359375 20.503906 20.410156 C 20.496094 21.253906 20.242188 21.992188 19.640625 22.59375 C 19.027344 23.113281 18.359375 23.3125 17.566406 23.308594 C 17.488281 23.308594 17.488281 23.308594 17.410156 23.308594 C 17.238281 23.3125 17.070312 23.3125 16.898438 23.308594 C 16.777344 23.3125 16.652344 23.3125 16.53125 23.3125 C 16.234375 23.3125 15.9375 23.3125 15.636719 23.3125 C 15.394531 23.3125 15.152344 23.3125 14.910156 23.3125 C 14.222656 23.3125 13.535156 23.3125 12.84375 23.3125 C 12.789062 23.3125 12.789062 23.3125 12.730469 23.3125 C 12.675781 23.3125 12.675781 23.3125 12.621094 23.3125 C 12.019531 23.3125 11.417969 23.316406 10.816406 23.316406 C 10.199219 23.316406 9.582031 23.320312 8.960938 23.316406 C 8.617188 23.316406 8.269531 23.320312 7.921875 23.320312 C 7.597656 23.320312 7.269531 23.320312 6.945312 23.320312 C 6.824219 23.320312 6.707031 23.320312 6.585938 23.320312 C 5.535156 23.324219 4.660156 23.238281 3.859375 22.480469 C 3.386719 21.957031 3.136719 21.300781 3.132812 20.597656 C 3.132812 20.566406 3.132812 20.535156 3.132812 20.503906 C 3.132812 20.40625 3.132812 20.304688 3.132812 20.203125 C 3.132812 20.128906 3.132812 20.058594 3.132812 19.984375 C 3.132812 19.785156 3.132812 19.582031 3.132812 19.382812 C 3.132812 19.167969 3.132812 18.949219 3.132812 18.734375 C 3.128906 18.210938 3.128906 17.6875 3.128906 17.167969 C 3.128906 16.921875 3.128906 16.675781 3.128906 16.429688 C 3.128906 15.609375 3.128906 14.792969 3.128906 13.972656 C 3.128906 13.761719 3.125 13.546875 3.125 13.335938 C 3.125 13.28125 3.125 13.230469 3.125 13.175781 C 3.125 12.320312 3.125 11.46875 3.125 10.613281 C 3.121094 9.734375 3.121094 8.855469 3.121094 7.980469 C 3.121094 7.488281 3.121094 6.992188 3.121094 6.5 C 3.117188 6.082031 3.117188 5.664062 3.117188 5.242188 C 3.117188 5.027344 3.117188 4.816406 3.117188 4.601562 C 3.117188 4.40625 3.117188 4.207031 3.117188 4.011719 C 3.117188 3.941406 3.117188 3.871094 3.117188 3.800781 C 3.109375 2.921875 3.316406 2.15625 3.929688 1.5 C 4.640625 0.832031 5.453125 0.734375 6.382812 0.738281 Z M 4.640625 2.390625 C 4.390625 2.738281 4.253906 3.066406 4.253906 3.503906 C 4.253906 3.53125 4.253906 3.5625 4.253906 3.59375 C 4.253906 3.695312 4.253906 3.792969 4.253906 3.894531 C 4.253906 3.96875 4.253906 4.039062 4.253906 4.113281 C 4.25 4.3125 4.25 4.511719 4.253906 4.710938 C 4.253906 4.925781 4.25 5.144531 4.25 5.359375 C 4.25 5.78125 4.25 6.203125 4.25 6.625 C 4.25 6.96875 4.25 7.3125 4.25 7.65625 C 4.25 8.628906 4.25 9.601562 4.25 10.574219 C 4.25 10.628906 4.25 10.679688 4.25 10.734375 C 4.25 10.785156 4.25 10.839844 4.25 10.894531 C 4.25 11.746094 4.246094 12.597656 4.246094 13.445312 C 4.246094 14.320312 4.242188 15.195312 4.246094 16.070312 C 4.246094 16.5625 4.242188 17.050781 4.242188 17.542969 C 4.242188 17.960938 4.242188 18.378906 4.242188 18.796875 C 4.242188 19.007812 4.242188 19.222656 4.242188 19.433594 C 4.242188 19.628906 4.242188 19.824219 4.242188 20.019531 C 4.242188 20.089844 4.242188 20.160156 4.242188 20.230469 C 4.238281 20.84375 4.332031 21.296875 4.765625 21.742188 C 5.175781 22.121094 5.59375 22.1875 6.136719 22.183594 C 6.1875 22.183594 6.238281 22.183594 6.289062 22.183594 C 6.457031 22.183594 6.628906 22.183594 6.796875 22.183594 C 6.917969 22.183594 7.039062 22.183594 7.160156 22.183594 C 7.453125 22.1875 7.75 22.1875 8.042969 22.1875 C 8.285156 22.1875 8.523438 22.1875 8.761719 22.1875 C 8.796875 22.1875 8.832031 22.1875 8.867188 22.1875 C 8.9375 22.1875 9.003906 22.1875 9.074219 22.1875 C 9.726562 22.1875 10.375 22.1875 11.027344 22.1875 C 11.621094 22.1875 12.214844 22.1875 12.808594 22.1875 C 13.421875 22.1875 14.03125 22.1875 14.640625 22.1875 C 14.984375 22.1875 15.328125 22.1875 15.671875 22.191406 C 15.992188 22.191406 16.316406 22.191406 16.636719 22.191406 C 16.753906 22.1875 16.875 22.191406 16.992188 22.191406 C 17.152344 22.191406 17.316406 22.191406 17.476562 22.1875 C 17.523438 22.191406 17.570312 22.191406 17.617188 22.191406 C 18.15625 22.1875 18.550781 22.039062 18.933594 21.660156 C 19.230469 21.339844 19.367188 21.015625 19.363281 20.578125 C 19.367188 20.53125 19.367188 20.484375 19.367188 20.4375 C 19.363281 20.363281 19.363281 20.363281 19.363281 20.285156 C 19.363281 20.230469 19.363281 20.175781 19.363281 20.121094 C 19.363281 19.972656 19.363281 19.820312 19.363281 19.671875 C 19.363281 19.511719 19.363281 19.347656 19.363281 19.1875 C 19.363281 18.90625 19.363281 18.628906 19.363281 18.347656 C 19.363281 17.945312 19.363281 17.539062 19.363281 17.136719 C 19.363281 16.480469 19.363281 15.824219 19.363281 15.167969 C 19.363281 14.53125 19.363281 13.894531 19.363281 13.253906 C 19.363281 13.214844 19.363281 13.175781 19.363281 13.136719 C 19.363281 12.9375 19.363281 12.742188 19.363281 12.546875 C 19.359375 10.910156 19.359375 9.277344 19.359375 7.640625 C 19.316406 7.640625 19.273438 7.640625 19.230469 7.640625 C 18.824219 7.636719 18.417969 7.632812 18.011719 7.628906 C 17.804688 7.628906 17.597656 7.625 17.386719 7.625 C 17.1875 7.625 16.984375 7.621094 16.785156 7.617188 C 16.707031 7.617188 16.628906 7.617188 16.554688 7.617188 C 15.71875 7.613281 14.976562 7.460938 14.351562 6.863281 C 13.675781 6.097656 13.589844 5.269531 13.578125 4.28125 C 13.578125 4.214844 13.578125 4.144531 13.574219 4.074219 C 13.574219 3.890625 13.570312 3.710938 13.570312 3.527344 C 13.566406 3.339844 13.5625 3.15625 13.5625 2.96875 C 13.554688 2.605469 13.550781 2.238281 13.546875 1.875 C 12.511719 1.871094 11.476562 1.867188 10.441406 1.863281 C 9.960938 1.863281 9.480469 1.859375 9 1.855469 C 8.578125 1.855469 8.160156 1.851562 7.742188 1.851562 C 7.519531 1.851562 7.296875 1.851562 7.074219 1.851562 C 6.867188 1.847656 6.65625 1.847656 6.449219 1.847656 C 6.371094 1.847656 6.296875 1.847656 6.21875 1.847656 C 5.632812 1.839844 5.042969 1.917969 4.640625 2.390625 Z M 14.671875 2.671875 C 14.667969 3.007812 14.664062 3.34375 14.660156 3.679688 C 14.660156 3.792969 14.660156 3.90625 14.65625 4.023438 C 14.621094 5.105469 14.621094 5.105469 15.089844 6.050781 C 15.585938 6.515625 16.15625 6.570312 16.800781 6.566406 C 16.851562 6.566406 16.902344 6.566406 16.953125 6.566406 C 17.113281 6.566406 17.273438 6.566406 17.433594 6.566406 C 17.542969 6.566406 17.652344 6.566406 17.761719 6.566406 C 18.027344 6.5625 18.296875 6.5625 18.5625 6.5625 C 18.359375 6.320312 18.148438 6.09375 17.921875 5.871094 C 17.886719 5.835938 17.855469 5.800781 17.816406 5.765625 C 17.703125 5.652344 17.589844 5.535156 17.476562 5.421875 C 17.398438 5.34375 17.316406 5.265625 17.238281 5.183594 C 17.074219 5.019531 16.90625 4.851562 16.742188 4.6875 C 16.527344 4.476562 16.3125 4.261719 16.101562 4.046875 C 15.9375 3.882812 15.773438 3.722656 15.609375 3.558594 C 15.53125 3.480469 15.453125 3.398438 15.375 3.320312 C 15.265625 3.210938 15.15625 3.101562 15.046875 2.992188 C 15.015625 2.960938 14.980469 2.929688 14.949219 2.894531 C 14.917969 2.863281 14.886719 2.835938 14.859375 2.804688 C 14.832031 2.777344 14.804688 2.753906 14.78125 2.726562 C 14.726562 2.667969 14.726562 2.667969 14.671875 2.671875 Z M 14.671875 2.671875 "/>
<path style=" stroke:none;fill-rule:nonzero;fill:rgb(0%,0%,0%);fill-opacity:1;" d="M 6.613281 14.050781 C 6.648438 14.050781 6.6875 14.050781 6.726562 14.050781 C 6.769531 14.050781 6.808594 14.050781 6.851562 14.050781 C 6.894531 14.050781 6.941406 14.050781 6.984375 14.050781 C 7.132812 14.046875 7.28125 14.046875 7.429688 14.050781 C 7.535156 14.046875 7.640625 14.046875 7.746094 14.046875 C 8.035156 14.046875 8.320312 14.046875 8.609375 14.046875 C 8.847656 14.046875 9.089844 14.046875 9.328125 14.046875 C 9.863281 14.046875 10.394531 14.046875 10.929688 14.046875 C 10.960938 14.046875 10.992188 14.046875 11.027344 14.046875 C 11.074219 14.046875 11.074219 14.046875 11.125 14.046875 C 11.644531 14.046875 12.164062 14.042969 12.683594 14.042969 C 13.214844 14.042969 13.75 14.039062 14.285156 14.042969 C 14.582031 14.042969 14.882812 14.039062 15.183594 14.039062 C 15.464844 14.039062 15.746094 14.039062 16.027344 14.039062 C 16.132812 14.039062 16.234375 14.039062 16.339844 14.039062 C 16.480469 14.039062 16.621094 14.039062 16.761719 14.039062 C 16.800781 14.039062 16.84375 14.039062 16.886719 14.039062 C 17.140625 14.039062 17.28125 14.082031 17.484375 14.25 C 17.597656 14.390625 17.59375 14.542969 17.589844 14.71875 C 17.570312 14.859375 17.53125 14.941406 17.4375 15.046875 C 17.195312 15.199219 16.996094 15.207031 16.71875 15.207031 C 16.675781 15.207031 16.632812 15.207031 16.585938 15.207031 C 16.441406 15.207031 16.292969 15.207031 16.148438 15.207031 C 16.042969 15.207031 15.9375 15.207031 15.835938 15.207031 C 15.550781 15.207031 15.265625 15.207031 14.980469 15.207031 C 14.742188 15.207031 14.503906 15.207031 14.269531 15.207031 C 13.675781 15.210938 13.082031 15.207031 12.492188 15.207031 C 11.976562 15.207031 11.460938 15.207031 10.949219 15.210938 C 10.421875 15.210938 9.890625 15.210938 9.363281 15.210938 C 9.066406 15.210938 8.769531 15.210938 8.472656 15.210938 C 8.195312 15.210938 7.917969 15.210938 7.636719 15.210938 C 7.535156 15.210938 7.433594 15.210938 7.332031 15.210938 C 7.191406 15.210938 7.050781 15.210938 6.910156 15.210938 C 6.871094 15.210938 6.832031 15.210938 6.789062 15.210938 C 6.519531 15.210938 6.363281 15.152344 6.140625 15 C 6.027344 14.863281 6.027344 14.707031 6.03125 14.53125 C 6.058594 14.375 6.132812 14.277344 6.234375 14.15625 C 6.363281 14.078125 6.460938 14.050781 6.613281 14.050781 Z M 6.613281 14.050781 "/>
<path style=" stroke:none;fill-rule:nonzero;fill:rgb(0%,0%,0%);fill-opacity:1;" d="M 6.808594 18.121094 C 6.875 18.121094 6.875 18.121094 6.941406 18.121094 C 7.09375 18.121094 7.242188 18.121094 7.390625 18.121094 C 7.496094 18.121094 7.605469 18.121094 7.710938 18.121094 C 8 18.117188 8.289062 18.117188 8.582031 18.117188 C 8.824219 18.117188 9.066406 18.117188 9.308594 18.117188 C 9.910156 18.117188 10.515625 18.117188 11.117188 18.117188 C 11.640625 18.117188 12.167969 18.117188 12.691406 18.113281 C 13.230469 18.113281 13.765625 18.113281 14.304688 18.113281 C 14.609375 18.113281 14.910156 18.113281 15.210938 18.113281 C 15.496094 18.109375 15.78125 18.109375 16.066406 18.113281 C 16.167969 18.113281 16.273438 18.113281 16.378906 18.109375 C 16.519531 18.109375 16.664062 18.109375 16.804688 18.113281 C 16.847656 18.109375 16.886719 18.109375 16.929688 18.109375 C 17.128906 18.113281 17.257812 18.125 17.414062 18.25 C 17.554688 18.398438 17.574219 18.472656 17.589844 18.675781 C 17.574219 18.890625 17.511719 19 17.367188 19.152344 C 17.1875 19.253906 17.015625 19.238281 16.816406 19.238281 C 16.75 19.238281 16.75 19.238281 16.683594 19.238281 C 16.53125 19.238281 16.382812 19.238281 16.234375 19.238281 C 16.128906 19.238281 16.019531 19.238281 15.914062 19.238281 C 15.625 19.242188 15.335938 19.242188 15.042969 19.242188 C 14.800781 19.242188 14.558594 19.242188 14.316406 19.242188 C 13.714844 19.242188 13.109375 19.242188 12.507812 19.242188 C 11.984375 19.242188 11.457031 19.242188 10.933594 19.246094 C 10.394531 19.246094 9.859375 19.246094 9.320312 19.246094 C 9.015625 19.246094 8.714844 19.246094 8.414062 19.246094 C 8.128906 19.25 7.84375 19.25 7.558594 19.246094 C 7.457031 19.246094 7.351562 19.246094 7.246094 19.25 C 7.105469 19.25 6.960938 19.25 6.820312 19.246094 C 6.777344 19.25 6.738281 19.25 6.695312 19.25 C 6.496094 19.246094 6.367188 19.234375 6.210938 19.109375 C 6.070312 18.960938 6.050781 18.886719 6.035156 18.6875 C 6.050781 18.46875 6.113281 18.359375 6.257812 18.207031 C 6.4375 18.105469 6.609375 18.121094 6.808594 18.121094 Z M 6.808594 18.121094 "/>
<path style=" stroke:none;fill-rule:nonzero;fill:rgb(0%,0%,0%);fill-opacity:1;" d="M 6.632812 10.011719 C 6.683594 10.011719 6.738281 10.011719 6.789062 10.011719 C 6.847656 10.011719 6.90625 10.011719 6.964844 10.011719 C 7.054688 10.011719 7.054688 10.011719 7.148438 10.011719 C 7.3125 10.007812 7.476562 10.007812 7.644531 10.007812 C 7.78125 10.007812 7.921875 10.007812 8.058594 10.007812 C 8.382812 10.007812 8.710938 10.007812 9.039062 10.007812 C 9.375 10.007812 9.710938 10.007812 10.046875 10.003906 C 10.335938 10.003906 10.625 10.003906 10.914062 10.003906 C 11.085938 10.003906 11.257812 10.003906 11.429688 10.003906 C 11.625 10 11.816406 10 12.007812 10.003906 C 12.066406 10 12.121094 10 12.179688 10 C 12.609375 10.003906 12.609375 10.003906 12.785156 10.144531 C 12.941406 10.324219 12.957031 10.4375 12.953125 10.671875 C 12.925781 10.855469 12.835938 10.9375 12.703125 11.0625 C 12.582031 11.121094 12.496094 11.117188 12.363281 11.117188 C 12.3125 11.117188 12.257812 11.117188 12.207031 11.117188 C 12.117188 11.117188 12.117188 11.117188 12.03125 11.117188 C 11.96875 11.117188 11.910156 11.121094 11.847656 11.121094 C 11.648438 11.121094 11.445312 11.121094 11.246094 11.121094 C 11.175781 11.121094 11.109375 11.121094 11.039062 11.121094 C 10.753906 11.125 10.464844 11.125 10.175781 11.125 C 9.765625 11.125 9.355469 11.128906 8.941406 11.128906 C 8.652344 11.132812 8.363281 11.132812 8.074219 11.132812 C 7.902344 11.132812 7.730469 11.132812 7.554688 11.136719 C 7.363281 11.136719 7.171875 11.136719 6.976562 11.136719 C 6.921875 11.136719 6.863281 11.136719 6.804688 11.140625 C 6.371094 11.136719 6.371094 11.136719 6.199219 11 C 6.035156 10.804688 6.03125 10.652344 6.046875 10.40625 C 6.171875 10.128906 6.328125 10.015625 6.632812 10.011719 Z M 6.632812 10.011719 "/>
</g>
</svg>
